<?xml version="1.0" encoding="UTF-8" standalone="no"?>
<!-- Created with Inkscape (http://www.inkscape.org/) -->

<svg
   xmlns:dc="http://purl.org/dc/elements/1.1/"
   xmlns:cc="http://creativecommons.org/ns#"
   xmlns:rdf="http://www.w3.org/1999/02/22-rdf-syntax-ns#"
   xmlns:svg="http://www.w3.org/2000/svg"
   xmlns="http://www.w3.org/2000/svg"
   xmlns:sodipodi="http://sodipodi.sourceforge.net/DTD/sodipodi-0.dtd"
   xmlns:inkscape="http://www.inkscape.org/namespaces/inkscape"
   width="591.17999"
   height="791.15997"
   id="svg2"
   version="1.1"
   inkscape:version="0.48.4 r9939"
   sodipodi:docname="VisualAlchemist.svg"
   inkscape:export-filename="/home/prahlad/source/python/valchemist/img/VisualAlchemist.png"
   inkscape:export-xdpi="90"
   inkscape:export-ydpi="90">
  <defs
     id="defs4">
    <inkscape:path-effect
       effect="envelope"
       id="path-effect3029"
       is_visible="true"
       yy="true"
       xx="true"
       bendpath1="m 306.88926,255.18525 c 53.9143,152.07651 285.40784,126.4078 617.54639,0"
       bendpath2="m 924.43565,255.18525 0,647.70317"
       bendpath3="m 306.88926,902.88842 617.54639,0"
       bendpath4="m 306.88926,255.18525 0,647.70317"
       bendpath1-nodetypes="cc" />
  </defs>
  <sodipodi:namedview
     id="base"
     pagecolor="#ffffff"
     bordercolor="#666666"
     borderopacity="1.0"
     inkscape:pageopacity="0.0"
     inkscape:pageshadow="2"
     inkscape:zoom="0.49497475"
     inkscape:cx="275.85486"
     inkscape:cy="343.80097"
     inkscape:document-units="px"
     inkscape:current-layer="layer1"
     showgrid="false"
     inkscape:window-width="1366"
     inkscape:window-height="718"
     inkscape:window-x="0"
     inkscape:window-y="26"
     inkscape:window-maximized="1"
     fit-margin-top="0"
     fit-margin-left="0"
     fit-margin-right="0"
     fit-margin-bottom="0" />
  <metadata
     id="metadata7">
    <rdf:RDF>
      <cc:Work
         rdf:about="">
        <dc:format>image/svg+xml</dc:format>
        <dc:type
           rdf:resource="http://purl.org/dc/dcmitype/StillImage" />
        <dc:title></dc:title>
      </cc:Work>
    </rdf:RDF>
  </metadata>
  <g
     inkscape:label="Layer 1"
     inkscape:groupmode="layer"
     id="layer1"
     transform="translate(-262.63966,-245.35311)">
    <g
       transform="scale(0.90847793,1.1007422)"
       style="font-size:586.39422607px;font-style:normal;font-weight:normal;line-height:125%;letter-spacing:0px;word-spacing:0px;fill:#2b0000;fill-opacity:1;stroke:none;font-family:Sans"
       id="text3004"
       inkscape:path-effect="#path-effect3029">
      <path
         d="m 661.18698,900.68894 c -30.30572,0.0454 -60.65057,0.0813 -91.02054,0.0993 -5.17041,-12.81174 -11.06795,-25.8676 -17.40295,-39.17551 -6.33499,-13.30792 -13.10722,-26.86758 -20.09186,-40.66369 -12.77822,-25.07464 -26.46619,-51.06272 -40.20963,-77.75326 -13.74345,-26.69054 -27.52837,-54.06092 -41.02026,-81.72442 -10e-6,-10e-6 -10e-6,-2e-5 -2e-5,-4e-5 -11.47757,-23.37673 -22.85467,-47.20862 -34.15115,-71.22415 -11.29649,-24.01552 -22.53352,-48.20859 -33.78408,-72.4835 0,-2e-5 -10e-6,-3e-5 -10e-6,-4e-5 -10.18897,-21.83488 -20.1707,-43.86652 -29.79141,-66.06052 -4.81036,-11.097 -9.52364,-22.23557 -14.06532,-33.40373 -4.54169,-11.16817 -8.91249,-22.36692 -12.98716,-33.56332 -4.15363,-11.57479 -7.93883,-23.07416 -11.18952,-34.43997 -3.25068,-11.36581 -5.96645,-22.59878 -7.93314,-33.59643 -1.96669,-10.99766 -3.18364,-21.76076 -3.39671,-32.13132 -0.21307,-10.37055 0.5787,-20.34936 2.65702,-29.71129 5.95176,4.48408 11.82661,9.60606 17.87273,15.06921 6.04612,5.46314 12.26355,11.26641 18.86905,17.06708 10.04853,8.82534 20.9812,17.57341 32.74646,25.44286 0.84249,7.48051 2.61943,15.2106 5.07806,23.0691 3.14903,10.12332 7.36566,20.46289 12.18498,30.91672 4.81932,10.45384 10.244,21.02336 15.9617,31.65327 5.7177,10.62992 11.73074,21.32136 17.84178,32.04668 6.11105,10.72533 12.32208,21.48539 18.51844,32.26537 0,0 0,0 10e-6,10e-6 7.28655,12.75876 14.58624,25.63544 21.82089,38.61953 7.23464,12.98408 14.40659,26.07556 21.49132,39.25178 14.16945,26.35245 27.99513,53.05058 41.47322,79.79764 0,0 0,0 0,10e-6 8.82026,17.64767 17.59359,35.37501 26.29611,53.08577 8.70252,17.71075 17.33625,35.40389 25.79561,52.99584 5.27315,12.93953 10.46261,25.83283 15.49924,38.64956 5.03878,12.52935 9.41914,23.70249 13.17762,33.55069 4.38276,11.53723 8.4003,22.71529 12.00084,33.53786 4.6017,-10.47016 9.48565,-21.64265 14.6154,-33.52644 4.39462,-10.14507 9.09341,-21.68273 14.03343,-34.64204 5.27174,-12.97448 10.76697,-26.64922 16.47312,-41.00444 18.189,-41.60697 35.3052,-83.85629 52.03212,-125.84083 10.83693,-26.9868 21.58984,-53.87175 32.19686,-80.55642 10.60702,-26.68467 21.07499,-53.1697 31.00711,-79.45 9.93212,-26.28029 19.33306,-52.35642 27.38484,-78.30755 8.05177,-25.95113 14.75688,-51.77775 18.82244,-77.63523 31.70348,-10.56472 63.0427,-19.90962 94.08618,-25.91473 -5.25508,23.51712 -11.9245,46.69595 -19.33638,69.69087 -7.41188,22.99493 -15.56635,45.80617 -24.00047,68.55011 -8.43413,22.74394 -17.14878,45.42081 -25.88257,68.10553 -8.7338,22.68471 -17.48832,45.37753 -26.18551,68.10818 -8.69718,22.73065 -17.33933,45.49939 -26.00249,68.28677 -8.66316,22.78737 -17.35037,45.59366 -26.25176,68.34587 -8.90138,22.75221 -18.02071,45.45067 -27.61124,67.96425 -9.59054,22.51359 -19.65678,44.84265 -30.45331,66.79308 -8.45931,17.29858 -17.41377,34.35453 -26.9348,51.0411 -9.52102,16.68657 -19.61258,33.00341 -30.23429,48.80482 z"
         style="fill:#ff0000"
         id="path3025"
         inkscape:original-d="m 661.01638,900.67698 -90.70785,0 -263.41927,-645.49173 92.08221,0 178.66698,454.4555 c 4.58093,13.74379 9.16213,27.48739 13.74362,41.23084 4.58091,13.43834 8.70399,25.50216 12.36925,36.19152 4.27549,12.52206 8.39857,24.73859 12.36925,36.64963 3.66465,-11.30021 7.63502,-23.21133 11.91113,-35.73339 3.66464,-10.68936 7.63501,-22.75318 11.91114,-36.19152 4.58086,-13.43804 9.46747,-27.48705 14.65985,-42.14708 l 177.75074,-454.4555 92.08222,0 -263.41927,645.49173" />
      <path
         d="m 805.84229,902.63694 c -1.68469,-14.37066 -4.17557,-28.60442 -7.24615,-42.75576 -3.07057,-14.15134 -6.72091,-28.22016 -10.76708,-42.23947 -8.09234,-28.03861 -17.72911,-55.89726 -27.9263,-83.60553 -12.89485,0.90479 -25.97566,1.82772 -39.22285,2.73073 -10e-6,0 -10e-6,0 -2e-5,0 -29.17967,2.07491 -59.74179,3.99681 -91.38509,5.2788 -31.64331,1.282 -64.36698,1.91157 -97.26893,1.64763 0,0 -1e-5,0 -1e-5,0 -18.85507,-0.1429 -38.24072,-0.86531 -57.70096,-2.09493 -7.0724,15.87045 -14.04462,31.67718 -20.61928,47.39639 -3.99832,9.53054 -7.85956,18.99237 -11.46495,28.40867 -3.60539,9.41629 -6.95574,18.78636 -9.8826,28.1616 -2.92686,9.37525 -5.43114,18.75487 -7.28193,28.22973 -1.85079,9.47487 -3.04908,19.04406 -3.28741,28.85108 -4.08245,-0.003 -8.16489,-0.005 -12.24729,-0.008 -1e-5,0 -1e-5,0 -1e-5,0 -16.9349,-0.0125 -33.86515,-0.0298 -50.78995,-0.0478 0,0 0,0 0,0 -8.93572,-0.01 -17.86883,-0.0186 -26.79975,-0.0257 -1.59879,-14.99254 -1.86784,-28.70805 -1.09652,-41.59173 0.77133,-12.88368 2.58146,-24.93445 5.16392,-36.47372 2.48212,-10.95841 5.62062,-21.52135 9.18872,-31.90091 3.5681,-10.37955 7.56625,-20.57368 11.82973,-30.70432 4.26348,-10.13064 8.79282,-20.19607 13.47802,-30.25628 4.6852,-10.0602 9.52688,-20.11378 14.46108,-30.18214 1e-5,0 1e-5,0 1e-5,-10e-6 10.88803,-22.57553 21.89393,-45.07857 32.76748,-67.36876 10.87355,-22.29019 21.65184,-44.35007 32.31929,-66.00529 12.53564,-25.51945 25.07797,-50.12005 37.41098,-73.50707 12.33301,-23.38702 24.45837,-45.57714 35.58383,-66.32632 5.36481,-10.08589 10.54132,-19.79728 15.37962,-29.11546 4.83829,-9.31817 9.33843,-18.2432 13.30187,-26.76251 18.39935,-0.61787 36.77755,-2.37319 55.03959,-5.04701 18.26205,-2.67381 36.40775,-6.26318 54.36855,-10.46083 10.65338,9.49604 20.5126,19.97676 29.68052,31.31212 9.16792,11.33536 17.64745,23.52474 25.59547,36.42678 9.78751,15.82628 18.83023,32.72396 27.42766,50.42495 8.59743,17.70099 16.75235,36.20396 24.71284,55.26141 7.96048,19.05746 15.72888,38.6682 23.46319,58.62418 7.73432,19.95597 15.43646,40.25613 23.14243,60.74854 7.70596,20.49241 15.41722,41.17617 23.02238,61.9701 7.60515,20.79392 15.10524,41.69725 22.22275,62.71204 7.11751,21.01478 13.85303,42.1404 19.7508,63.47251 5.89777,21.33211 10.95795,42.87024 14.54102,64.81193 -29.61915,0.002 -59.24069,0.006 -88.86467,0.0104 z M 665.15345,496.68931 c -4.67353,-9.49663 -9.62934,-18.89375 -14.91033,-28.13657 -5.28166,-9.24198 -10.34613,-17.75901 -15.16463,-25.60175 -4.47551,-7.88026 -8.65187,-14.49528 -12.44524,-19.99594 -3.4752,-5.76263 -6.14305,-9.77165 -7.898,-12.21447 -1.00746,2.74506 -2.49026,7.19772 -4.56871,13.48438 -2.07898,6.28749 -4.85011,13.63453 -8.37496,22.11479 -3.17516,8.45661 -6.7889,17.56356 -10.83585,27.35383 -3.69481,9.77478 -7.6828,19.49453 -11.91852,29.10077 -7.83143,17.46024 -15.86151,35.37892 -23.97031,53.664 -8.10879,18.28509 -16.30011,36.93639 -24.52767,55.83863 -9.50709,21.65983 -19.20243,43.56669 -28.99119,65.52668 10.03839,0.4905 20.01177,0.8103 29.8508,0.9525 16.54171,0.24754 33.07528,0.21644 49.44236,-0.071 16.36708,-0.28746 32.56764,-0.83074 48.48781,-1.57848 15.92017,-0.74775 31.55992,-1.69941 46.8504,-2.78276 15.29048,-1.08334 30.23166,-2.29783 44.80024,-3.55852 10e-6,0 10e-6,0 10e-6,0 5.52158,-0.46045 11.00965,-0.92588 16.46231,-1.39267 -5.50135,-14.57779 -11.06724,-29.06353 -16.67806,-43.40393 -8.80655,-22.63614 -17.76422,-44.9155 -26.97325,-66.56525 -9.20904,-21.64976 -18.6763,-42.66717 -28.63721,-62.73421 z"
         style="fill:#000080;font-family:Liberation Mono;-inkscape-font-specification:Liberation Mono"
         id="path3027"
         inkscape:original-d="m 806.08639,902.88842 -63.22062,-175.00202 -257.92182,0 -62.76251,175.00202 -89.79161,0 233.64144,-618.00451 99.41214,0 229.51835,618.00451 -88.87537,0 M 653.53228,465.8415 c -3.9707,-11.60527 -8.09378,-23.36369 -12.36925,-35.27528 -4.2761,-11.91065 -8.24647,-23.21094 -11.91114,-33.90091 -3.35984,-10.68896 -6.41397,-20.00407 -9.16241,-27.94535 -2.44359,-8.24563 -4.27607,-14.20119 -5.49744,-17.8667 -1.22194,3.66551 -3.05442,9.62107 -5.49745,17.8667 -2.44358,8.24669 -5.49771,17.71451 -9.16241,28.40347 -3.35981,10.68997 -7.02477,21.99026 -10.99489,33.90091 -3.66521,11.91159 -7.48288,23.5173 -11.45301,34.81716 l -69.17619,193.78495 212.10978,0 -66.88559,-193.78495" />
    </g>
    <flowRoot
       xml:space="preserve"
       id="flowRoot3008"
       style="font-size:40px;font-style:normal;font-weight:normal;line-height:125%;letter-spacing:0px;word-spacing:0px;fill:#000000;fill-opacity:1;stroke:none;font-family:Sans"><flowRegion
         id="flowRegion3010"><rect
           id="rect3012"
           width="129.29953"
           height="167.68532"
           x="779.83777"
           y="323.87103" /></flowRegion><flowPara
         id="flowPara3014"></flowPara></flowRoot>  </g>
</svg>
